<svg width="163" height="44" viewBox="0 0 163 44" fill="none" xmlns="http://www.w3.org/2000/svg">
<path d="M39.1557 15.0353L34.0577 12.6918C32.5131 11.9765 31.2652 10.7439 30.55 9.20685L28.1912 4.14689C27.0194 1.62071 24.4704 0 21.6703 0C18.8702 0 16.3212 1.6131 15.1418 4.14689L12.7831 9.20685C12.0678 10.7439 10.8276 11.9765 9.27533 12.6918L4.17732 15.0353C2.90662 15.6212 1.8642 16.5419 1.13374 17.6756C0.410884 18.8018 0 20.1333 0 21.5258C0 24.3106 1.62832 26.8368 4.16971 28.0086L9.26772 30.3522C10.8199 31.0598 12.0602 32.3001 12.7755 33.8371L15.1342 38.9046C15.7201 40.1677 16.6484 41.2025 17.7822 41.9254C18.9159 42.6482 20.2551 43.0515 21.6551 43.0515C24.4628 43.0515 27.0042 41.4308 28.1836 38.9046L30.5424 33.8371C31.2576 32.3001 32.4979 31.0598 34.0501 30.3522L39.1481 28.0086C41.6895 26.8368 43.3178 24.3106 43.3178 21.5258C43.3178 18.7409 41.6895 16.2071 39.1481 15.0429M21.6703 30.4054C16.7245 30.4054 12.7222 26.4259 12.7222 21.5182C12.7222 16.6104 16.7245 12.6309 21.6703 12.6309C26.6162 12.6309 30.6109 16.6104 30.6109 21.5182C30.6109 26.4259 26.6085 30.4054 21.6703 30.4054Z" fill="white"/>
<path d="M96.0159 31.9658H92.082V32.1637H96.0159V31.9658Z" fill="white"/>
<path d="M79.7385 31.9658H75.8047V32.1637H79.7385V31.9658Z" fill="white"/>
<path d="M96.0141 10.7061V31.9655H92.0803V23.3065H79.7461V31.9655H75.8047V10.7061H79.7461V19.3651H92.0803V10.7061H96.0141Z" fill="white"/>
<path d="M120.458 32.1637H116.334L116.273 31.9658H120.397L120.458 32.1637Z" fill="white"/>
<path d="M102.876 31.9658L102.807 32.1637H98.668L98.7364 31.9658H102.876Z" fill="white"/>
<path d="M120.397 31.9655H116.273L116.182 31.6688L111.069 15.7432C110.855 15.0888 110.254 14.6475 109.562 14.6475C108.877 14.6475 108.268 15.0888 108.055 15.7432L102.965 31.6764L102.874 31.9655H98.7344L98.9703 31.235L104.327 14.541C105.057 12.2583 107.18 10.7061 109.577 10.7061C111.974 10.7061 114.104 12.2583 114.835 14.541L120.176 31.2427L120.405 31.9655H120.397Z" fill="white"/>
<path d="M126.047 17.5996V25.1705C126.047 26.7988 127.363 28.1076 128.984 28.1076H140.504V32.0642H128.984C125.179 32.0642 122.09 28.975 122.09 25.1705V17.592C122.09 13.7799 125.179 10.6982 128.984 10.6982H140.496V14.6549H128.976C127.355 14.6549 126.039 15.9713 126.039 17.592L126.047 17.5996Z" fill="white"/>
<path d="M147.558 17.5998V18.5889C147.558 19.0455 147.923 19.4107 148.38 19.4107H158.584V23.3674H148.38C147.923 23.3674 147.558 23.7326 147.558 24.1891V25.1707C147.558 26.7914 148.875 28.1078 150.495 28.1078H162.015V32.0644H150.495C146.683 32.0644 143.602 28.9752 143.602 25.1707V17.5998C143.602 13.7877 146.691 10.7061 150.495 10.7061H162.015V14.6627H150.495C148.875 14.6627 147.558 15.9791 147.558 17.5998Z" fill="white"/>
<path d="M58.8734 15.3322C58.6604 15.6594 58.5462 16.1616 58.5462 16.8235C58.5462 17.6377 58.6527 18.2464 58.8658 18.6269C59.0332 18.9312 59.2539 19.1443 59.5278 19.266C59.5886 19.2965 59.8169 19.3421 59.8854 19.3421C60.6387 19.3421 60.7148 19.3421 61.4833 19.3421H66.6041C68.8564 19.3421 70.5303 20.0269 71.5728 21.0313C71.6412 21.0998 71.7097 21.1683 71.7782 21.2443C71.8239 21.29 71.8619 21.3433 71.9076 21.3889C72.3337 21.8987 72.6532 22.5074 72.8587 23.2075C72.9119 23.3977 72.9652 23.5879 73.0032 23.7934C73.0717 24.1205 73.1098 24.4629 73.1326 24.8282C73.1478 25.0184 73.1478 25.2086 73.1478 25.4065C73.1478 27.1337 72.9348 28.4881 72.5087 29.4316C72.075 30.3979 71.3749 31.0827 70.4314 31.4784C69.5031 31.8665 68.2172 32.0643 66.6041 32.0643H54.8939V27.9783H65.7976C66.6269 27.9783 67.2509 27.9022 67.6618 27.75C68.0498 27.6054 68.3161 27.5294 68.4759 27.1717C68.5977 26.913 68.6737 26.5554 68.7118 26.1141C68.7118 26.0608 68.7194 26.0076 68.727 25.9543C68.7346 25.8021 68.7422 25.6347 68.7422 25.4673C68.7422 24.5238 68.4835 23.8999 67.9813 23.6183C67.5933 23.4053 67.1139 23.2607 66.5356 23.1999C66.3074 23.177 66.0639 23.1618 65.8052 23.1618H60.6843C58.5158 23.1618 56.8646 22.6748 55.7842 21.7237C54.6961 20.765 54.1406 19.266 54.1406 17.2572C54.1406 15.4083 54.4602 13.9473 55.0841 12.9049C55.2515 12.6234 55.4494 12.3723 55.6624 12.1516C56.5755 11.2157 58.0516 10.6983 60.0452 10.607H60.068C60.2202 10.5994 60.3724 10.5918 60.5322 10.5918H72.2804V14.5256H66.2313C65.9802 14.5104 65.6986 14.5028 65.3943 14.5028H61.4909C61.2474 14.5028 61.0191 14.5028 60.8137 14.5256C60.4104 14.5485 60.068 14.6017 59.7941 14.6702C59.3908 14.7767 59.0941 14.9898 58.881 15.3094L58.8734 15.3322Z" fill="white"/>
</svg>
